<svg width="1059" height="227" viewBox="0 0 1059 227" fill="none" xmlns="http://www.w3.org/2000/svg">
<path d="M25.1534 67.5625V166H0.011364V2.36363H24.3011V27.9318H26.4318C30.267 19.6222 36.0909 12.946 43.9034 7.90341C51.7159 2.78977 61.8011 0.232956 74.1591 0.232956C85.2386 0.232956 94.9332 2.50568 103.243 7.05113C111.553 11.5256 118.016 18.3438 122.632 27.5057C127.249 36.5966 129.557 48.1023 129.557 62.0227V166H104.415V63.7273C104.415 50.8722 101.077 40.858 94.4006 33.6847C87.7244 26.4403 78.5625 22.8182 66.9148 22.8182C58.8892 22.8182 51.7159 24.5582 45.3949 28.0383C39.1449 31.5185 34.2088 36.5966 30.5867 43.2727C26.9645 49.9489 25.1534 58.0455 25.1534 67.5625ZM275.788 166V133.6L273.688 126.7V70C273.688 59 270.388 50.5 263.788 44.5C257.188 38.3 247.188 35.2 233.788 35.2C224.788 35.2 215.888 36.6 207.088 39.4C198.488 42.2 191.188 46.1 185.188 51.1L170.488 23.8C179.088 17.2 189.288 12.3 201.088 9.1C213.088 5.7 225.488 3.99999 238.288 3.99999C261.488 3.99999 279.388 9.59999 291.988 20.8C304.788 31.8 311.188 48.9 311.188 72.1V166H275.788ZM225.388 168.1C213.388 168.1 202.888 166.1 193.888 162.1C184.888 157.9 177.888 152.2 172.888 145C168.088 137.6 165.688 129.3 165.688 120.1C165.688 111.1 167.788 103 171.988 95.8C176.388 88.6 183.488 82.9 193.288 78.7C203.088 74.5 216.088 72.4 232.288 72.4H278.788V97.3H234.988C222.188 97.3 213.588 99.4 209.188 103.6C204.788 107.6 202.588 112.6 202.588 118.6C202.588 125.4 205.288 130.8 210.688 134.8C216.088 138.8 223.588 140.8 233.188 140.8C242.388 140.8 250.588 138.7 257.788 134.5C265.188 130.3 270.488 124.1 273.688 115.9L279.988 138.4C276.388 147.8 269.888 155.1 260.488 160.3C251.288 165.5 239.588 168.1 225.388 168.1ZM369.585 226.3C361.785 226.3 353.985 225 346.185 222.4C338.385 219.8 331.885 216.2 326.685 211.6L341.685 184C345.485 187.4 349.785 190.1 354.585 192.1C359.385 194.1 364.285 195.1 369.285 195.1C376.085 195.1 381.585 193.4 385.785 190C389.985 186.6 393.885 180.9 397.485 172.9L406.785 151.9L409.785 147.4L470.385 5.79999H506.385L431.385 178.9C426.385 190.9 420.785 200.4 414.585 207.4C408.585 214.4 401.785 219.3 394.185 222.1C386.785 224.9 378.585 226.3 369.585 226.3ZM402.585 171.7L330.285 5.79999H369.285L428.085 144.1L402.585 171.7ZM597.428 168.1C581.028 168.1 566.428 164.6 553.628 157.6C540.828 150.4 530.728 140.6 523.328 128.2C515.928 115.8 512.228 101.7 512.228 85.9C512.228 69.9 515.928 55.8 523.328 43.6C530.728 31.2 540.828 21.5 553.628 14.5C566.428 7.5 581.028 3.99999 597.428 3.99999C614.028 3.99999 628.728 7.5 641.528 14.5C654.528 21.5 664.628 31.1 671.828 43.3C679.228 55.5 682.928 69.7 682.928 85.9C682.928 101.7 679.228 115.8 671.828 128.2C664.628 140.6 654.528 150.4 641.528 157.6C628.728 164.6 614.028 168.1 597.428 168.1ZM597.428 136C606.628 136 614.828 134 622.028 130C629.228 126 634.828 120.2 638.828 112.6C643.028 105 645.128 96.1 645.128 85.9C645.128 75.5 643.028 66.6 638.828 59.2C634.828 51.6 629.228 45.8 622.028 41.8C614.828 37.8 606.728 35.8 597.728 35.8C588.528 35.8 580.328 37.8 573.128 41.8C566.128 45.8 560.528 51.6 556.328 59.2C552.128 66.6 550.028 75.5 550.028 85.9C550.028 96.1 552.128 105 556.328 112.6C560.528 120.2 566.128 126 573.128 130C580.328 134 588.428 136 597.428 136ZM809.688 3.99999C822.488 3.99999 833.888 6.49999 843.888 11.5C854.088 16.5 862.088 24.2 867.888 34.6C873.688 44.8 876.588 58 876.588 74.2V166H839.088V79C839.088 64.8 835.688 54.2 828.888 47.2C822.288 40.2 812.988 36.7 800.988 36.7C792.188 36.7 784.388 38.5 777.588 42.1C770.788 45.7 765.488 51.1 761.688 58.3C758.088 65.3 756.288 74.2 756.288 85V166H718.788V5.79999H754.488V49L748.188 35.8C753.788 25.6 761.888 17.8 772.488 12.4C783.288 6.79999 795.688 3.99999 809.688 3.99999ZM1022.86 166V133.6L1020.76 126.7V70C1020.76 59 1017.46 50.5 1010.86 44.5C1004.26 38.3 994.259 35.2 980.859 35.2C971.859 35.2 962.959 36.6 954.159 39.4C945.559 42.2 938.259 46.1 932.259 51.1L917.559 23.8C926.159 17.2 936.359 12.3 948.159 9.1C960.159 5.7 972.559 3.99999 985.359 3.99999C1008.56 3.99999 1026.46 9.59999 1039.06 20.8C1051.86 31.8 1058.26 48.9 1058.26 72.1V166H1022.86ZM972.459 168.1C960.459 168.1 949.959 166.1 940.959 162.1C931.959 157.9 924.959 152.2 919.959 145C915.159 137.6 912.759 129.3 912.759 120.1C912.759 111.1 914.859 103 919.059 95.8C923.459 88.6 930.559 82.9 940.359 78.7C950.159 74.5 963.159 72.4 979.359 72.4H1025.86V97.3H982.059C969.259 97.3 960.659 99.4 956.259 103.6C951.859 107.6 949.659 112.6 949.659 118.6C949.659 125.4 952.359 130.8 957.759 134.8C963.159 138.8 970.659 140.8 980.259 140.8C989.459 140.8 997.659 138.7 1004.86 134.5C1012.26 130.3 1017.56 124.1 1020.76 115.9L1027.06 138.4C1023.46 147.8 1016.96 155.1 1007.56 160.3C998.359 165.5 986.659 168.1 972.459 168.1Z" fill="black"/>
</svg>
