<svg width="196" height="67" viewBox="0 0 196 67" fill="none" xmlns="http://www.w3.org/2000/svg">
<path d="M58.2603 17.96C59.967 17.96 61.447 18.2933 62.7003 18.96C63.9803 19.6 64.967 20.5867 65.6603 21.92C66.3803 23.2267 66.7403 24.8533 66.7403 26.8V39H64.7403V26.96C64.7403 24.6133 64.1403 22.8267 62.9403 21.6C61.767 20.3733 60.1136 19.76 57.9803 19.76C56.3536 19.76 54.9403 20.0933 53.7403 20.76C52.5403 21.4267 51.6203 22.36 50.9803 23.56C50.367 24.76 50.0603 26.2 50.0603 27.88V39H48.0603V18.12H49.9803V23.92L49.7003 23.28C50.3403 21.6267 51.3936 20.3333 52.8603 19.4C54.327 18.44 56.127 17.96 58.2603 17.96ZM87.8544 39V34.36L87.7344 33.6V25.84C87.7344 24.0533 87.2277 22.68 86.2144 21.72C85.2277 20.76 83.7477 20.28 81.7744 20.28C80.4144 20.28 79.121 20.5067 77.8944 20.96C76.6677 21.4133 75.6277 22.0133 74.7744 22.76L73.4944 20.64C74.561 19.7333 75.841 19.04 77.3344 18.56C78.8277 18.0533 80.401 17.8 82.0544 17.8C84.7744 17.8 86.8677 18.48 88.3344 19.84C89.8277 21.1733 90.5744 23.2133 90.5744 25.96V39H87.8544ZM80.6144 39.2C79.041 39.2 77.6677 38.9467 76.4944 38.44C75.3477 37.9067 74.4677 37.1867 73.8544 36.28C73.241 35.3467 72.9344 34.28 72.9344 33.08C72.9344 31.9867 73.1877 31 73.6944 30.12C74.2277 29.2133 75.081 28.4933 76.2544 27.96C77.4544 27.4 79.0544 27.12 81.0544 27.12H88.2944V29.24H81.1344C79.1077 29.24 77.6944 29.6 76.8944 30.32C76.121 31.04 75.7344 31.9333 75.7344 33C75.7344 34.2 76.201 35.16 77.1344 35.88C78.0677 36.6 79.3744 36.96 81.0544 36.96C82.6544 36.96 84.0277 36.6 85.1744 35.88C86.3477 35.1333 87.201 34.0667 87.7344 32.68L88.3744 34.64C87.841 36.0267 86.9077 37.1333 85.5744 37.96C84.2677 38.7867 82.6144 39.2 80.6144 39.2ZM98.0575 46.96C97.0708 46.96 96.1242 46.8 95.2175 46.48C94.3375 46.16 93.5775 45.68 92.9375 45.04L94.2575 42.92C94.7908 43.4267 95.3642 43.8133 95.9775 44.08C96.6175 44.3733 97.3242 44.52 98.0975 44.52C99.0308 44.52 99.8308 44.2533 100.498 43.72C101.191 43.2133 101.844 42.3067 102.458 41L103.818 37.92L104.138 37.48L112.778 18H115.578L105.058 41.52C104.471 42.88 103.818 43.96 103.098 44.76C102.404 45.56 101.644 46.12 100.818 46.44C99.9908 46.7867 99.0708 46.96 98.0575 46.96ZM103.658 39.6L93.9775 18H96.9375L105.498 37.28L103.658 39.6ZM127.551 39.2C125.525 39.2 123.698 38.7467 122.071 37.84C120.471 36.9067 119.205 35.64 118.271 34.04C117.338 32.4133 116.871 30.56 116.871 28.48C116.871 26.3733 117.338 24.52 118.271 22.92C119.205 21.32 120.471 20.0667 122.071 19.16C123.671 18.2533 125.498 17.8 127.551 17.8C129.631 17.8 131.471 18.2533 133.071 19.16C134.698 20.0667 135.965 21.32 136.871 22.92C137.805 24.52 138.271 26.3733 138.271 28.48C138.271 30.56 137.805 32.4133 136.871 34.04C135.965 35.64 134.698 36.9067 133.071 37.84C131.445 38.7467 129.605 39.2 127.551 39.2ZM127.551 36.68C129.071 36.68 130.418 36.3467 131.591 35.68C132.765 34.9867 133.685 34.0267 134.351 32.8C135.045 31.5467 135.391 30.1067 135.391 28.48C135.391 26.8267 135.045 25.3867 134.351 24.16C133.685 22.9333 132.765 21.9867 131.591 21.32C130.418 20.6267 129.085 20.28 127.591 20.28C126.098 20.28 124.765 20.6267 123.591 21.32C122.418 21.9867 121.485 22.9333 120.791 24.16C120.098 25.3867 119.751 26.8267 119.751 28.48C119.751 30.1067 120.098 31.5467 120.791 32.8C121.485 34.0267 122.418 34.9867 123.591 35.68C124.765 36.3467 126.085 36.68 127.551 36.68ZM154.789 17.8C156.496 17.8 157.989 18.1333 159.269 18.8C160.576 19.44 161.589 20.4267 162.309 21.76C163.056 23.0933 163.429 24.7733 163.429 26.8V39H160.589V27.08C160.589 24.8667 160.029 23.2 158.909 22.08C157.816 20.9333 156.269 20.36 154.269 20.36C152.776 20.36 151.469 20.6667 150.349 21.28C149.256 21.8667 148.403 22.7333 147.789 23.88C147.203 25 146.909 26.36 146.909 27.96V39H144.069V18H146.789V23.76L146.349 22.68C147.016 21.16 148.083 19.9733 149.549 19.12C151.016 18.24 152.763 17.8 154.789 17.8ZM184.261 39V34.36L184.141 33.6V25.84C184.141 24.0533 183.634 22.68 182.621 21.72C181.634 20.76 180.154 20.28 178.181 20.28C176.821 20.28 175.527 20.5067 174.301 20.96C173.074 21.4133 172.034 22.0133 171.181 22.76L169.901 20.64C170.967 19.7333 172.247 19.04 173.741 18.56C175.234 18.0533 176.807 17.8 178.461 17.8C181.181 17.8 183.274 18.48 184.741 19.84C186.234 21.1733 186.981 23.2133 186.981 25.96V39H184.261ZM177.021 39.2C175.447 39.2 174.074 38.9467 172.901 38.44C171.754 37.9067 170.874 37.1867 170.261 36.28C169.647 35.3467 169.341 34.28 169.341 33.08C169.341 31.9867 169.594 31 170.101 30.12C170.634 29.2133 171.487 28.4933 172.661 27.96C173.861 27.4 175.461 27.12 177.461 27.12H184.701V29.24H177.541C175.514 29.24 174.101 29.6 173.301 30.32C172.527 31.04 172.141 31.9333 172.141 33C172.141 34.2 172.607 35.16 173.541 35.88C174.474 36.6 175.781 36.96 177.461 36.96C179.061 36.96 180.434 36.6 181.581 35.88C182.754 35.1333 183.607 34.0667 184.141 32.68L184.781 34.64C184.247 36.0267 183.314 37.1333 181.981 37.96C180.674 38.7867 179.021 39.2 177.021 39.2Z" fill="black"/>
<path d="M25.2813 24.5433C28.2679 27.0635 29.4531 30.7038 29.842 34.486C29.9879 36.8486 29.9367 39.2246 29.9182 41.5901C29.914 42.2785 29.9142 42.9668 29.9144 43.6552C29.9143 44.3207 29.9122 44.9861 29.9093 45.6516C29.9081 45.9682 29.9073 46.2848 29.907 46.6014C29.9062 47.0406 29.9028 47.4798 29.8986 47.919C29.8971 48.1681 29.8956 48.4173 29.8941 48.6739C29.8448 49.2689 29.7871 49.5961 29.4523 50.0825C28.8042 50.5198 28.4184 50.6716 27.6332 50.6468C26.7949 50.442 26.3506 50.07 25.7623 49.4733C25.5608 49.2779 25.3591 49.0827 25.1572 48.8876C25.0599 48.7921 24.9626 48.6966 24.8624 48.5981C24.3582 48.1138 23.8183 47.6713 23.281 47.2244C23.0222 46.9632 21.5384 45.6915 21.5384 45.3016C21.4349 45.2621 22.8153 46.4944 22.7086 46.4537C22.0398 46.0655 21.5591 45.5313 21.025 44.9771C20.2203 44.1558 19.4093 43.3676 18.5323 42.6232C17.8861 42.0489 17.2899 41.4242 16.6827 40.8092C16.133 40.2661 15.5617 39.7574 14.9732 39.2571C14.6537 38.9788 14.357 38.6862 14.0591 38.3852C14.0441 39.7163 14.0339 41.0473 14.027 42.3785C14.0241 42.83 14.0201 43.2815 14.015 43.7329C13.9419 49.6068 13.9419 49.6068 16.4369 54.8102C17.977 56.3109 19.8393 56.7917 21.9404 56.7823C25.485 56.6945 28.1853 55.338 30.8163 53.0068C30.9403 52.899 31.0644 52.7912 31.1923 52.6801C32.9427 51.0538 34.0997 48.9045 35.103 46.7682C36.389 46.7682 37.675 46.7682 39 46.7682C37.9531 51.4818 34.8157 55.6262 30.8163 58.2706C29.0226 59.4017 27.2373 60.1361 25.1656 60.6101C25.0197 60.6475 24.8737 60.685 24.7234 60.7236C21.0589 61.2848 17.5177 60.6134 14.4823 58.4656C11.3198 55.8255 10.3957 51.8519 9.96721 47.938C9.88064 46.7331 9.8889 45.5272 9.89643 44.3199C9.89653 43.9905 9.89643 43.6611 9.89613 43.3317C9.89615 42.6503 9.89814 41.9691 9.90171 41.2877C9.90618 40.4153 9.90622 39.5428 9.90492 38.6703C9.90427 37.9942 9.90556 37.318 9.90748 36.6418C9.90823 36.3198 9.90845 35.9977 9.90814 35.6757C9.90807 35.2285 9.91053 34.7814 9.9137 34.3342C9.91459 34.0804 9.91549 33.8266 9.91642 33.5652C9.9642 32.9642 10.017 32.6361 10.3569 32.1466C10.9546 31.7525 11.3691 31.5685 12.0862 31.5373C12.9961 31.8651 13.561 32.4604 14.2539 33.1214C14.5452 33.3895 14.8365 33.6576 15.1286 33.9249C15.3324 34.1116 15.5358 34.2987 15.7388 34.4863C16.2878 34.9928 16.845 35.4841 17.4203 35.9604C17.5971 36.1172 25.568 43.6823 25.7501 43.8439C25.7501 43.9726 17.9561 36.6929 17.9561 36.8255C18.0641 36.8695 18.1721 36.9135 18.2834 36.9588C18.869 37.2912 19.2674 37.718 19.7341 38.2024C20.3413 38.8656 20.3413 38.8656 21.0737 39.3599C21.0737 39.4886 21.4833 39.795 21.4833 39.9276C21.5875 39.9678 21.2822 39.8303 21.3896 39.8717C22.044 40.2501 22.5133 40.767 23.0344 41.3095C23.8486 42.1533 25.4862 43.6473 26.4134 44.3631C26.4134 44.4918 24.8706 43.3442 24.8706 43.4768C25.0575 43.5672 24.2393 43.1163 24.4299 43.2086C24.8318 43.4158 25.5553 43.649 25.7501 43.8439C25.7702 42.6033 25.7837 41.3626 25.793 40.1219C25.7968 39.7014 25.8021 39.281 25.8089 38.8606C25.8689 35.069 25.7231 31.1087 23.2544 27.9984C21.8185 26.5857 19.9518 26.2253 18.0048 26.2004C14.1778 26.2488 11.1607 27.7762 8.40841 30.392C8.04831 30.8331 7.74548 31.279 7.43415 31.7567C7.56665 31.7567 7.30555 31.7567 7.43415 31.7567C7.36106 31.9052 5.88846 34.0222 5.8139 34.1737C5.62061 34.5568 6.50428 32.82 6.3031 33.199C5.41372 34.8958 4.75028 36.5095 4.31654 38.3852C4.27911 38.5347 4.24169 38.6842 4.20313 38.8383C3.40616 43.9431 4.87355 49.2348 7.85144 53.378C10.1337 56.4743 12.8294 58.6979 16.1766 60.556C16.3137 60.6382 16.4508 60.7204 16.5921 60.805C16.5921 60.8694 16.5921 60.9337 16.5921 61C13.1634 60.7713 9.87389 59.0485 7.2393 56.9059C7.08031 56.781 6.92131 56.6561 6.7575 56.5274C3.17894 53.5371 0.67366 48.78 0.0846189 44.1615C-0.363167 38.3807 0.935952 32.9831 4.70624 28.4424C6.97722 25.8476 9.62777 23.94 12.89 22.7887C13.0756 22.7226 13.2612 22.6565 13.4525 22.5884C17.5057 21.4135 21.939 21.9647 25.2813 24.5433Z" fill="#010101"/>
<path d="M25.6172 22C29.5149 22.6582 33.2782 26.4633 35.7886 30.6324C37.1834 33.2151 39.0029 36.8073 39.0029 40.1801C37.8986 40.1801 36.7943 40.1801 35.6565 40.1801C35.5475 39.7791 35.4385 39.3781 35.3263 38.9649C33.9118 34.1188 32.0682 29.7885 29.492 26.04C29.3767 25.8714 29.2613 25.7028 29.1425 25.5291C28.1101 24.1313 26.8577 23.2142 25.6172 22.2525C25.6172 22.1692 25.6172 22.0859 25.6172 22Z" fill="#090909"/>
<path d="M56.13 61.069C54.9953 61.069 53.9757 60.816 53.071 60.31C52.1817 59.7887 51.4763 59.0757 50.955 58.171C50.449 57.251 50.196 56.2007 50.196 55.02C50.196 53.8393 50.449 52.7967 50.955 51.892C51.4763 50.972 52.1817 50.259 53.071 49.753C53.9757 49.2317 54.9953 48.971 56.13 48.971C57.0347 48.971 57.8703 49.1473 58.637 49.5C59.4037 49.8373 60.04 50.3433 60.546 51.018L59.971 51.501C59.5263 50.8723 58.9667 50.4123 58.292 50.121C57.6327 49.8297 56.912 49.684 56.13 49.684C55.1487 49.684 54.267 49.9063 53.485 50.351C52.703 50.7957 52.082 51.4243 51.622 52.237C51.1773 53.0343 50.955 53.962 50.955 55.02C50.955 56.078 51.1773 57.0133 51.622 57.826C52.082 58.6233 52.703 59.252 53.485 59.712C54.267 60.1567 55.1487 60.379 56.13 60.379C56.912 60.379 57.6327 60.2333 58.292 59.942C58.9667 59.6353 59.5263 59.1753 59.971 58.562L60.546 59.022C60.04 59.712 59.4037 60.2257 58.637 60.563C57.8703 60.9003 57.0347 61.069 56.13 61.069ZM68.4594 61.069C67.3401 61.069 66.3358 60.816 65.4464 60.31C64.5724 59.7887 63.8748 59.068 63.3534 58.148C62.8474 57.228 62.5944 56.1853 62.5944 55.02C62.5944 53.8393 62.8474 52.7967 63.3534 51.892C63.8748 50.9873 64.5724 50.2743 65.4464 49.753C66.3358 49.2317 67.3401 48.971 68.4594 48.971C69.5788 48.971 70.5831 49.2317 71.4724 49.753C72.3618 50.2743 73.0594 50.9873 73.5654 51.892C74.0714 52.7967 74.3244 53.8393 74.3244 55.02C74.3244 56.1853 74.0714 57.228 73.5654 58.148C73.0594 59.068 72.3618 59.7887 71.4724 60.31C70.5831 60.816 69.5788 61.069 68.4594 61.069ZM68.4594 60.379C69.4408 60.379 70.3148 60.1567 71.0814 59.712C71.8634 59.252 72.4691 58.6157 72.8984 57.803C73.3431 56.9903 73.5654 56.0627 73.5654 55.02C73.5654 53.962 73.3431 53.0343 72.8984 52.237C72.4691 51.4243 71.8634 50.7957 71.0814 50.351C70.3148 49.9063 69.4408 49.684 68.4594 49.684C67.4934 49.684 66.6271 49.9063 65.8604 50.351C65.0938 50.7957 64.4804 51.4243 64.0204 52.237C63.5758 53.0343 63.3534 53.962 63.3534 55.02C63.3534 56.0627 63.5758 56.9903 64.0204 57.803C64.4804 58.6157 65.0938 59.252 65.8604 59.712C66.6271 60.1567 67.4934 60.379 68.4594 60.379ZM83.7144 48.971C84.6957 48.971 85.539 49.1627 86.2444 49.546C86.965 49.9293 87.5247 50.4967 87.9234 51.248C88.322 51.984 88.5214 52.8963 88.5214 53.985V61H87.7624V54.031C87.7624 52.605 87.402 51.524 86.6814 50.788C85.9607 50.052 84.9487 49.684 83.6454 49.684C82.6487 49.684 81.79 49.8833 81.0694 50.282C80.3487 50.6807 79.7967 51.248 79.4134 51.984C79.03 52.72 78.8384 53.5787 78.8384 54.56V61H78.0794V49.063H78.8154V52.421L78.7234 52.214C79.0914 51.2173 79.697 50.4277 80.5404 49.845C81.399 49.2623 82.457 48.971 83.7144 48.971ZM96.3626 61.069C95.3812 61.069 94.4612 60.9233 93.6026 60.632C92.7439 60.3253 92.0922 59.942 91.6476 59.482L92.0156 58.884C92.4602 59.2827 93.0659 59.6353 93.8326 59.942C94.5992 60.2487 95.4502 60.402 96.3856 60.402C97.7196 60.402 98.6779 60.172 99.2606 59.712C99.8586 59.252 100.158 58.654 100.158 57.918C100.158 57.3813 100.012 56.9597 99.7206 56.653C99.4292 56.3463 99.0459 56.1087 98.5706 55.94C98.0952 55.7713 97.5662 55.641 96.9836 55.549C96.4162 55.4417 95.8412 55.3267 95.2586 55.204C94.6759 55.066 94.1469 54.8897 93.6716 54.675C93.1962 54.445 92.8129 54.1307 92.5216 53.732C92.2302 53.3333 92.0846 52.8043 92.0846 52.145C92.0846 51.5777 92.2379 51.0563 92.5446 50.581C92.8666 50.1057 93.3496 49.7223 93.9936 49.431C94.6376 49.1243 95.4579 48.971 96.4546 48.971C97.1906 48.971 97.9266 49.086 98.6626 49.316C99.4139 49.5307 100.012 49.822 100.457 50.19L100.066 50.788C99.5902 50.4047 99.0306 50.121 98.3866 49.937C97.7579 49.753 97.1062 49.661 96.4316 49.661C95.1896 49.661 94.2849 49.8987 93.7176 50.374C93.1502 50.8493 92.8666 51.432 92.8666 52.122C92.8666 52.674 93.0122 53.1187 93.3036 53.456C93.5949 53.778 93.9782 54.0233 94.4536 54.192C94.9289 54.3607 95.4502 54.4987 96.0176 54.606C96.6002 54.7133 97.1752 54.8283 97.7426 54.951C98.3252 55.0737 98.8542 55.2423 99.3296 55.457C99.8049 55.6717 100.188 55.9707 100.48 56.354C100.771 56.7373 100.917 57.2587 100.917 57.918C100.917 58.5313 100.74 59.0833 100.388 59.574C100.05 60.0493 99.5442 60.4173 98.8696 60.678C98.2102 60.9387 97.3746 61.069 96.3626 61.069ZM109.098 61.069C108.071 61.069 107.189 60.885 106.453 60.517C105.717 60.1337 105.15 59.574 104.751 58.838C104.353 58.0867 104.153 57.1667 104.153 56.078V49.063H104.912V56.032C104.912 57.458 105.28 58.539 106.016 59.275C106.752 60.011 107.787 60.379 109.121 60.379C110.072 60.379 110.892 60.1797 111.582 59.781C112.288 59.367 112.824 58.792 113.192 58.056C113.56 57.32 113.744 56.469 113.744 55.503V49.063H114.503V61H113.767V57.665L113.859 57.872C113.522 58.8533 112.939 59.6353 112.111 60.218C111.283 60.7853 110.279 61.069 109.098 61.069ZM119.61 61V43.934H120.369V61H119.61ZM128.4 61.069C127.419 61.069 126.668 60.793 126.146 60.241C125.625 59.689 125.364 58.9453 125.364 58.01V46.441H126.123V57.895C126.123 58.7077 126.323 59.3287 126.721 59.758C127.12 60.1873 127.703 60.402 128.469 60.402C129.251 60.402 129.895 60.1643 130.401 59.689L130.792 60.241C130.501 60.517 130.141 60.724 129.711 60.862C129.282 61 128.845 61.069 128.4 61.069ZM123.11 49.73V49.063H130.056V49.73H123.11ZM141.754 61V58.217L141.731 57.803V53.272C141.731 52.0913 141.417 51.1943 140.788 50.581C140.16 49.9677 139.247 49.661 138.051 49.661C137.177 49.661 136.38 49.8143 135.659 50.121C134.939 50.4123 134.318 50.7957 133.796 51.271L133.382 50.719C133.95 50.1823 134.647 49.7607 135.475 49.454C136.303 49.132 137.17 48.971 138.074 48.971C139.5 48.971 140.589 49.339 141.34 50.075C142.107 50.7957 142.49 51.8613 142.49 53.272V61H141.754ZM137.315 61.069C136.411 61.069 135.636 60.931 134.992 60.655C134.364 60.379 133.881 59.988 133.543 59.482C133.206 58.9607 133.037 58.3703 133.037 57.711C133.037 57.1283 133.175 56.5917 133.451 56.101C133.727 55.595 134.18 55.1963 134.808 54.905C135.452 54.5983 136.311 54.445 137.384 54.445H142.007V55.066H137.384C136.081 55.066 135.153 55.3113 134.601 55.802C134.065 56.2927 133.796 56.9137 133.796 57.665C133.796 58.5083 134.111 59.183 134.739 59.689C135.368 60.1797 136.242 60.425 137.361 60.425C138.465 60.425 139.378 60.1797 140.098 59.689C140.819 59.183 141.363 58.47 141.731 57.55L141.984 58.056C141.678 58.9607 141.126 59.689 140.328 60.241C139.531 60.793 138.527 61.069 137.315 61.069ZM153.096 48.971C154.078 48.971 154.921 49.1627 155.626 49.546C156.347 49.9293 156.907 50.4967 157.305 51.248C157.704 51.984 157.903 52.8963 157.903 53.985V61H157.144V54.031C157.144 52.605 156.784 51.524 156.063 50.788C155.343 50.052 154.331 49.684 153.027 49.684C152.031 49.684 151.172 49.8833 150.451 50.282C149.731 50.6807 149.179 51.248 148.795 51.984C148.412 52.72 148.22 53.5787 148.22 54.56V61H147.461V49.063H148.197V52.421L148.105 52.214C148.473 51.2173 149.079 50.4277 149.922 49.845C150.781 49.2623 151.839 48.971 153.096 48.971ZM167.446 61.069C166.312 61.069 165.292 60.816 164.387 60.31C163.498 59.7887 162.793 59.0757 162.271 58.171C161.765 57.251 161.512 56.2007 161.512 55.02C161.512 53.8393 161.765 52.7967 162.271 51.892C162.793 50.972 163.498 50.259 164.387 49.753C165.292 49.2317 166.312 48.971 167.446 48.971C168.351 48.971 169.187 49.1473 169.953 49.5C170.72 49.8373 171.356 50.3433 171.862 51.018L171.287 51.501C170.843 50.8723 170.283 50.4123 169.608 50.121C168.949 49.8297 168.228 49.684 167.446 49.684C166.465 49.684 165.583 49.9063 164.801 50.351C164.019 50.7957 163.398 51.4243 162.938 52.237C162.494 53.0343 162.271 53.962 162.271 55.02C162.271 56.078 162.494 57.0133 162.938 57.826C163.398 58.6233 164.019 59.252 164.801 59.712C165.583 60.1567 166.465 60.379 167.446 60.379C168.228 60.379 168.949 60.2333 169.608 59.942C170.283 59.6353 170.843 59.1753 171.287 58.562L171.862 59.022C171.356 59.712 170.72 60.2257 169.953 60.563C169.187 60.9003 168.351 61.069 167.446 61.069ZM174.738 65.531C174.202 65.531 173.703 65.439 173.243 65.255C172.783 65.0863 172.392 64.8257 172.07 64.473L172.507 63.875C172.829 64.2123 173.167 64.4577 173.519 64.611C173.872 64.7797 174.278 64.864 174.738 64.864C175.321 64.864 175.835 64.703 176.279 64.381C176.724 64.059 177.138 63.4687 177.521 62.61L178.395 60.724L178.51 60.54L183.708 49.063H184.513L178.257 62.794C177.951 63.4687 177.613 64.0053 177.245 64.404C176.893 64.818 176.509 65.1093 176.095 65.278C175.681 65.4467 175.229 65.531 174.738 65.531ZM178.418 61.276L172.852 49.063H173.68L178.855 60.494L178.418 61.276Z" fill="black"/>
</svg>
