<svg width="70" height="64" viewBox="0 0 70 64" fill="none" xmlns="http://www.w3.org/2000/svg">
<path fill-rule="evenodd" clip-rule="evenodd" d="M5.19786 56V33.9633L20.5426 50.8205L25.2572 56H42.9568V55.0103L39.1419 50.8205L37.7582 49.3008L9.42924 18.1791H37.7582V28.6367H42.9568V13H0V15.5297L2.41188 18.1791L5.19786 21.24L32.125 50.8205H27.5599L5.19786 26.2541L0 20.5445V56H5.19786ZM42.9568 34.7445H37.7582L37.8025 45.6617L43 51.2175L42.9568 34.7445Z" fill="black"/>
<path d="M60.01 13.1C61.29 13.1 62.41 13.35 63.37 13.85C64.35 14.33 65.11 15.07 65.65 16.07C66.21 17.07 66.49 18.33 66.49 19.85V29H64.36V20.06C64.36 18.4 63.94 17.15 63.1 16.31C62.28 15.45 61.12 15.02 59.62 15.02C58.5 15.02 57.52 15.25 56.68 15.71C55.86 16.15 55.22 16.8 54.76 17.66C54.32 18.5 54.1 19.52 54.1 20.72V29H51.97V13.25H54.01V17.57L53.68 16.76C54.18 15.62 54.98 14.73 56.08 14.09C57.18 13.43 58.49 13.1 60.01 13.1Z" fill="black"/>
<path d="M60.51 56.15C58.95 56.15 57.55 55.81 56.31 55.13C55.09 54.43 54.13 53.48 53.43 52.28C52.73 51.06 52.38 49.67 52.38 48.11C52.38 46.53 52.73 45.14 53.43 43.94C54.13 42.74 55.09 41.8 56.31 41.12C57.55 40.44 58.95 40.1 60.51 40.1C61.85 40.1 63.06 40.36 64.14 40.88C65.22 41.4 66.07 42.18 66.69 43.22L65.1 44.3C64.56 43.5 63.89 42.91 63.09 42.53C62.29 42.15 61.42 41.96 60.48 41.96C59.36 41.96 58.35 42.22 57.45 42.74C56.55 43.24 55.84 43.95 55.32 44.87C54.8 45.79 54.54 46.87 54.54 48.11C54.54 49.35 54.8 50.43 55.32 51.35C55.84 52.27 56.55 52.99 57.45 53.51C58.35 54.01 59.36 54.26 60.48 54.26C61.42 54.26 62.29 54.07 63.09 53.69C63.89 53.31 64.56 52.73 65.1 51.95L66.69 53.03C66.07 54.05 65.22 54.83 64.14 55.37C63.06 55.89 61.85 56.15 60.51 56.15Z" fill="black"/>
</svg>
