<?xml version="1.0" encoding="UTF-8"?>
<!-- Created with Inkscape (http://www.inkscape.org/) -->
<svg width="963.66" height="817.79" version="1.1" viewBox="0 0 963.66 817.79" xmlns="http://www.w3.org/2000/svg">
 <defs>
  <clipPath id="clipPath4459">
   <path d="m0.92547 1.2209h1.3276v1.2297h-1.3276z" stroke-width=".014579"/>
  </clipPath>
  <clipPath id="clipPath4463">
   <path d="m0.92547 1.2209h1.3276v1.2297h-1.3276z" stroke-width=".014579"/>
  </clipPath>
  <clipPath id="clipPath4467">
   <path d="m0.92547 1.2209h1.3276v1.2297h-1.3276z" stroke-width=".014579"/>
  </clipPath>
  <clipPath id="clipPath4471">
   <path d="m0.92547 1.2209h1.3276v1.2297h-1.3276z" stroke-width=".014579"/>
  </clipPath>
  <clipPath id="clipPath4475">
   <path d="m0.92547 1.2209h1.3276v1.2297h-1.3276z" stroke-width=".014579"/>
  </clipPath>
  <clipPath id="clipPath4479">
   <path d="m0.92547 1.2209h1.3276v1.2297h-1.3276z" stroke-width=".014579"/>
  </clipPath>
  <clipPath id="clipPath4483">
   <path d="m0.92547 1.2209h1.3276v1.2297h-1.3276z" stroke-width=".014579"/>
  </clipPath>
  <clipPath id="clipPath4487">
   <path d="m0.92547 1.2209h1.3276v1.2297h-1.3276z" stroke-width=".014579"/>
  </clipPath>
 </defs>
 <g transform="translate(-2.16e-5,-1.985e-5)">
  <path transform="matrix(1022.8 0 0 -817.79 -1107.5 1934.1)" d="m1.646 2.2704c0 0.0521 0.0338 0.0944 0.0756 0.0944 0.0417 0 0.0755-0.0423 0.0755-0.0944 0-0.0522-0.0338-0.0945-0.0755-0.0945-0.0418 0-0.0756 0.0423-0.0756 0.0945" clip-path="url(#clipPath4487)"/>
  <path transform="matrix(1022.8 0 0 -817.79 -1107.5 1934.1)" d="m1.7216 2.1496c-0.0418 0-0.0756-0.0423-0.0756-0.0945 0-0.0521 0.0338-0.0944 0.0756-0.0944 0.0417 0 0.0755 0.0423 0.0755 0.0944 0 0.0522-0.0338 0.0945-0.0755 0.0945zm0-0.1309c-0.0161 0-0.0291 0.0163-0.0291 0.0364s0.013 0.0364 0.0291 0.0364c0.016 0 0.029-0.0163 0.029-0.0364s-0.013-0.0364-0.029-0.0364" clip-path="url(#clipPath4483)"/>
  <path transform="matrix(1022.8 0 0 -817.79 -1107.5 1934.1)" d="m1.5495 2.1496c-0.0417 0-0.0756-0.0423-0.0756-0.0945 0-0.0521 0.0339-0.0944 0.0756-0.0944s0.0755 0.0423 0.0755 0.0944c0 0.0522-0.0338 0.0945-0.0755 0.0945zm0-0.1309c-0.0161 0-0.0291 0.0163-0.0291 0.0364s0.013 0.0364 0.0291 0.0364c0.016 0 0.0291-0.0163 0.0291-0.0364s-0.0131-0.0364-0.0291-0.0364" clip-path="url(#clipPath4479)"/>
  <path transform="matrix(1022.8 0 0 -817.79 -1107.5 1934.1)" d="m1.3771 2.1496c-0.0417 0-0.0755-0.0423-0.0755-0.0945 0-0.0521 0.0338-0.0944 0.0755-0.0944s0.0755 0.0423 0.0755 0.0944c0 0.0522-0.0338 0.0945-0.0755 0.0945zm0-0.1309c-0.0161 0-0.0291 0.0163-0.0291 0.0364s0.013 0.0364 0.0291 0.0364 0.0291-0.0163 0.0291-0.0364-0.013-0.0364-0.0291-0.0364" clip-path="url(#clipPath4475)"/>
  <path transform="matrix(1022.8 0 0 -817.79 -1107.5 1934.1)" d="m1.7216 1.9344c-0.0418 0-0.0756-0.0423-0.0756-0.0945s0.0338-0.0945 0.0756-0.0945c0.0417 0 0.0755 0.0423 0.0755 0.0945s-0.0338 0.0945-0.0755 0.0945zm0-0.1556c-0.027 0-0.0489 0.0274-0.0489 0.0611s0.0219 0.0611 0.0489 0.0611c0.0269 0 0.0488-0.0274 0.0488-0.0611s-0.0219-0.0611-0.0488-0.0611" clip-path="url(#clipPath4471)"/>
  <path transform="matrix(1022.8 0 0 -817.79 -1107.5 1934.1)" d="m1.3772 1.9344c-0.0417 0-0.0755-0.0423-0.0755-0.0945s0.0338-0.0945 0.0755-0.0945c0.0418 0 0.0756 0.0423 0.0756 0.0945s-0.0338 0.0945-0.0756 0.0945zm0-0.1556c-0.0269 0-0.0488 0.0274-0.0488 0.0611s0.0219 0.0611 0.0488 0.0611c0.027 0 0.0489-0.0274 0.0489-0.0611s-0.0219-0.0611-0.0489-0.0611" clip-path="url(#clipPath4467)"/>
  <path transform="matrix(1022.8 0 0 -817.79 -1107.5 1934.1)" d="m1.3772 2.365c-0.0417 0-0.0755-0.0423-0.0755-0.0945s0.0338-0.0944 0.0755-0.0944c0.0418 0 0.0756 0.0422 0.0756 0.0944s-0.0338 0.0945-0.0756 0.0945zm0-0.1556c-0.0269 0-0.0488 0.0274-0.0488 0.0611 0 0.0338 0.0219 0.0611 0.0488 0.0611 0.027 0 0.0489-0.0273 0.0489-0.0611 0-0.0337-0.0219-0.0611-0.0489-0.0611" clip-path="url(#clipPath4463)"/>
  <path transform="matrix(1022.8 0 0 -817.79 -1107.5 1934.1)" d="m1.0828 1.6275h0.0286v-0.0811h0.0742v0.0811h0.0286v-0.204h-0.0286v0.092h-0.0742v-0.092h-0.0286zm0.149-0.0563h0.0285l0.0308-0.1103h5e-4l0.0299 0.1103h0.0272l-0.0459-0.1557c-0.0085-0.0265-0.0146-0.0505-0.0418-0.0505-0.0062 0-0.0121 5e-4 -0.0181 0.0017v0.0274c0.0042-9e-4 0.0083-2e-3 0.0124-2e-3 0.0121 0 0.0151 8e-3 0.0183 0.0206l0.0029 0.0114zm0.2242-0.074c0-0.0257-0.0089-0.052-0.0326-0.052-0.021 0-0.0331 0.0223-0.0331 0.052 0 0.0314 0.0111 0.0523 0.0331 0.0523 0.0214 0 0.0326-0.0254 0.0326-0.0523zm-0.0909-0.1282h0.0261v0.0737h4e-4c0.0083-0.0163 0.0245-0.0232 0.0395-0.0232 0.035 0 0.051 0.0374 0.051 0.0772 0 0.0431-0.0181 0.0785-0.0553 0.0785-0.0151 0-0.0292-0.0071-0.0365-0.024h-5e-4v0.02h-0.0247zm0.1615 0.1414c7e-4 0.022 0.013 0.0391 0.0311 0.0391 0.0176 0 0.0288-0.0186 0.0297-0.0391zm0.0868-0.0215c0.0043 0.0443-0.0185 0.0863-0.0557 0.0863-0.0352 0-0.0571-0.036-0.0571-0.078 0-0.0454 0.0208-0.0777 0.0578-0.0777 0.0258 0 0.0477 0.018 0.0534 0.0503h-0.0247c-0.0045-0.0163-0.0137-0.0246-0.0287-0.0246-0.0217 0-0.0318 0.0206-0.0318 0.0437zm0.0244 0.0823h0.0245v-0.0286h4e-4c3e-3 0.0158 0.0185 0.0326 0.0345 0.0326 6e-3 0 0.0076-6e-4 0.0099-9e-4v-0.0314c-0.0037 6e-4 -0.0076 0.0015-0.0112 0.0015-0.0179 0-0.032-0.018-0.032-0.0506v-0.0703h-0.0261zm0.0903 0h0.026v-0.1477h-0.026zm0 0.0563h0.026v-0.0309h-0.026zm0.1096-0.1823c-0.0233 0-0.0336 0.0266-0.0336 0.0523 0 0.0254 0.0103 0.052 0.0336 0.052s0.0336-0.0266 0.0336-0.052c0-0.0257-0.0103-0.0523-0.0336-0.0523zm0-0.0257c0.0379 0 0.0596 0.0326 0.0596 0.078 0 0.0451-0.0217 0.0777-0.0596 0.0777s-0.0596-0.0326-0.0596-0.0777c0-0.0454 0.0217-0.078 0.0596-0.078zm0.0836 0.1517h0.0246v-0.0217l5e-4 -6e-4c0.0078 0.0163 0.0213 0.0263 0.0368 0.0263 0.0256 0 0.0418-0.0171 0.0418-0.0503v-0.1014h-0.0261v0.0929c-4e-4 0.0231-0.0077 0.0331-0.023 0.0331-0.0174 0-0.0286-0.0171-0.0286-0.0389v-0.0871h-0.026" clip-path="url(#clipPath4459)"/>
 </g>
</svg>
